# xmcd
#
# Track frame offsets:
#	150
#	15094
#	37382
#	45257
#	58993
#	74084
#	97302
#	118747
#	134646
#	145478
#	161260
#	176785
#	197574
#	215974
#	235984
#	254926
#	271452
#	289712
#
# Disc length: 4212 seconds
#
# Revision: 1
# Processed by: cddbd v1.5.2PL0 Copyright (c) Steve Scherf et al.
# Submitted via: EZCDAudioConverter 6.0.0.1
#
DISCID=2f107212
DTITLE=Eldo - Człowiek Który Chciał Ukraść Alfabet
DYEAR=2006
DGENRE=Hip-Hop/Rap
TTITLE0=A
TTITLE1=Czysta Kartka
TTITLE2=Hala Przylotów
TTITLE3=Diabeł Na Oknie
TTITLE4=Prasa, Telewizja, Radio
TTITLE5=Dzwiek Ludzi
TTITLE6=Czas
TTITLE7=Opakowani W Folie
TTITLE8=Ucieczka Z Literami
TTITLE9=Popołudnie Pisarza
TTITLE10=Jest 1:20
TTITLE11=Świadek Z Przypadku
TTITLE12=C.K.C.U.A
TTITLE13=Książki
TTITLE14=Czas, Czas, Czas
TTITLE15=Hotel Savoy
TTITLE16=Dialog
TTITLE17=Z
EXTD=
EXTT0=
EXTT1=
EXTT2=
EXTT3=
EXTT4=
EXTT5=
EXTT6=
EXTT7=
EXTT8=
EXTT9=
EXTT10=
EXTT11=
EXTT12=
EXTT13=
EXTT14=
EXTT15=
EXTT16=
EXTT17=
PLAYORDER=
